<svg xmlns="http://www.w3.org/2000/svg" version="1.1" xmlns:xlink="http://www.w3.org/1999/xlink" xmlns:svgjs="http://svgjs.dev/svgjs" width="1000" height="1125" viewBox="0 0 1000 1125"><g transform="matrix(1,0,0,1,0,0)"><svg viewBox="0 0 320 360" data-background-color="#fdf8f1" preserveAspectRatio="xMidYMid meet" height="1125" width="1000" xmlns="http://www.w3.org/2000/svg" xmlns:xlink="http://www.w3.org/1999/xlink"><defs></defs><g id="tight-bounds" transform="matrix(1,0,0,1,0,0)"><svg viewBox="0 0 320 360" height="360" width="320"><g><svg></svg></g><g><svg viewBox="0 0 320 360" height="360" width="320"><g><path d="M320 141.95l-19.957-19.957v-28.224l-53.812-53.812h-28.223l-19.958-19.957h-76.1l-19.957 19.957h-28.224l-53.812 53.812v28.224l-19.957 19.957v76.104l19.957 19.958v28.223l53.816 53.808h28.224l19.957 19.957h76.104l19.958-19.957h28.223l53.812-53.812v-28.224l19.949-19.957zM244.374 44.437l51.189 51.189v21.887l-73.076-73.076zM295.563 123.849v112.306l-79.408 79.408h-112.306l-79.412-79.412v-112.302l79.412-79.412h112.306zM123.807 24.48h72.39l15.478 15.477h-103.346zM24.437 95.626l51.189-51.189h21.887l-73.076 73.076zM4.484 216.197v-72.394l15.477-15.478v103.342zM75.626 315.563l-51.189-51.189v-21.887l73.076 73.076zM196.197 335.52h-72.39l-15.478-15.477h103.342zM295.563 264.374l-51.189 51.189h-21.887l73.076-73.076zM315.52 216.197l-15.477 15.478v-103.346l15.477 15.478z" fill="#fa4238" data-fill-palette-color="tertiary"></path></g><g transform="matrix(1,0,0,1,119.94606410285138,90)"><svg viewBox="0 0 80.10787179429724 180" height="180" width="80.10787179429724"><g><svg viewBox="0 0 209.03999999999996 469.7066487625579" height="180" width="80.10787179429724"><g><rect width="209.03999999999996" height="11.574539411478263" x="0" y="158.86241203166634" fill="#fa4238" opacity="1" stroke-width="0" stroke="transparent" fill-opacity="1" class="rect-o-0" data-fill-palette-color="primary" rx="1%" id="o-0" data-palette-color="#fa4238"></rect></g><g transform="matrix(1,0,0,1,0.5199999999999818,200.73679283444895)"><svg viewBox="0 0 208 268.9698559281089" height="268.9698559281089" width="208"><g><svg viewBox="0 0 208 268.9698559281089" height="268.9698559281089" width="208"><g><svg viewBox="0 0 208 128.34782608695653" height="128.34782608695653" width="208"><g transform="matrix(1,0,0,1,0,0)"><svg width="208" viewBox="2 -35.54999923706055 61.029998779296875 36.040000915527344" height="128.34782608695653" data-palette-color="#fa4238"><g class="undefined-text-0" data-fill-palette-color="primary" id="text-0"><path d="M6.45-0.44L6.45 0.29 2 0Q2.49-5.37 2.59-17.97 2.69-30.57 3.22-35.55L3.22-35.55Q4.88-35.4 12.04-35.3 19.19-35.21 21.39-34.86L21.39-34.86 21.92-32.67Q19.73-32.28 13.13-31.74 6.54-31.2 6.2-31.15L6.2-31.15Q6.25-30.03 6.42-26.56 6.59-23.1 6.64-20.85L6.64-20.85Q8.3-20.65 12.7-20.29 17.09-19.92 18.26-19.82L18.26-19.82 18.75-17.58Q8.45-16.65 6.69-16.6L6.69-16.6 6.69-15.77Q6.69-13.92 6.57-8.08 6.45-2.25 6.45-0.44L6.45-0.44ZM38.86-24.51L38.86-24.51 41.21-24.07 41.21-23.58Q41.21-20.26 41.62-12.35 42.04-4.44 42.38-0.15L42.38-0.15Q41.4 0.24 40.52 0.24L40.52 0.24Q39.74 0.24 38.77 0L38.77 0 38.38-1.27Q35.25 0.49 32.42 0.49L32.42 0.49Q30.32 0.49 28.78-0.49 27.24-1.46 26.41-2.91 25.58-4.35 25.1-6.47 24.61-8.59 24.48-10.33 24.36-12.06 24.36-14.21L24.36-14.21Q24.36-20.46 25.14-25.68L25.14-25.68 27.34-25.2Q27.68-23.58 27.68-21.68L27.68-21.68Q27.68-20.61 27.56-17.97 27.44-15.33 27.44-13.96L27.44-13.96Q27.44-11.57 27.66-9.84 27.88-8.11 28.49-6.47 29.1-4.83 30.37-3.96 31.64-3.08 33.54-3.08L33.54-3.08Q35.69-3.08 38.18-4.05L38.18-4.05Q38.28-5.86 38.38-13.31 38.47-20.75 38.86-24.51ZM49.65-19.53L49.65-19.53 49.85-0.2Q49.12 0.2 48.09 0.2L48.09 0.2Q47.31 0.2 46.33-0.05L46.33-0.05Q46.48-3.13 46.53-12.16 46.58-21.19 46.92-25.54L46.92-25.54 49.12-25.05 49.26-22.31Q51.85-25.05 55.22-25.05L55.22-25.05Q56.93-25.05 57.95-24.8 58.98-24.56 59.93-23.61 60.88-22.66 61.37-21.09 61.86-19.53 62.25-16.63 62.64-13.72 62.81-9.84 62.98-5.96 63.03-0.05L63.03-0.05Q62.74 0.05 61.91 0.05L61.91 0.05Q60.15 0.05 59.17-0.39L59.17-0.39Q58.98-1.17 58.98-2.98L58.98-2.98Q58.98-3.91 59.05-6.47 59.13-9.03 59.13-10.45L59.13-10.45Q59.13-12.79 58.95-14.55 58.78-16.31 58.32-18.02 57.86-19.73 56.9-20.65 55.95-21.58 54.54-21.58L54.54-21.58Q52.92-21.58 52.02-21.34 51.12-21.09 50.75-20.75 50.39-20.41 49.65-19.53Z" fill="#fa4238" data-fill-palette-color="primary"></path></g></svg></g></svg></g><g transform="matrix(1,0,0,1,0,158.64766747826087)"><svg viewBox="0 0 208 110.32218844984803" height="110.32218844984803" width="208"><g transform="matrix(1,0,0,1,0,0)"><svg width="208" viewBox="3.3499999046325684 -34.29999923706055 65.80000305175781 34.89999771118164" height="110.32218844984803" data-palette-color="#fa4238"><path d="M3.35 0L3.35-34.3 23.25-34.3 23.25-29.75 8.35-29.75 8.35-19.45 21.4-19.45 21.4-14.9 8.35-14.9 8.35 0 3.35 0ZM34.65 0.6Q27.95 0.6 27.95-7.5L27.95-7.5 27.95-26.3 32.65-26.3 32.65-8.25Q32.65-5.7 33.57-4.65 34.5-3.6 36.3-3.6L36.3-3.6Q38.25-3.6 39.6-5.43 40.95-7.25 40.95-10.15L40.95-10.15 40.95-26.3 45.65-26.3 45.65 0 41.95 0 41.35-3.1 41.05-3.1Q40-1.3 38.35-0.35 36.7 0.6 34.65 0.6L34.65 0.6ZM51.45 0L51.45-26.3 55.15-26.3 55.75-23.2 56.05-23.2Q57.09-25 58.75-25.95 60.4-26.9 62.5-26.9L62.5-26.9Q69.15-26.9 69.15-18.8L69.15-18.8 69.15 0 64.45 0 64.45-18.05Q64.45-20.6 63.52-21.65 62.59-22.7 60.8-22.7L60.8-22.7Q58.84-22.7 57.5-20.88 56.15-19.05 56.15-16.1L56.15-16.1 56.15 0 51.45 0Z" opacity="1" transform="matrix(1,0,0,1,0,0)" fill="#fa4238" class="undefined-text-1" data-fill-palette-color="secondary" id="text-1"></path></svg></g></svg></g></svg></g></svg></g><g transform="matrix(1,0,0,1,40.247999999999976,0)"><svg viewBox="0 0 128.544 128.562570640362" height="128.562570640362" width="128.544"><g><svg xmlns="http://www.w3.org/2000/svg" xmlns:xlink="http://www.w3.org/1999/xlink" version="1.1" x="0" y="0" viewBox="7.488999843597412 4.540999889373779 89.98799896240234 90.0009994506836" enable-background="new 0 0 107.353 100" xml:space="preserve" height="128.562570640362" width="128.544" class="icon-icon-0" data-fill-palette-color="accent" id="icon-0"><g fill="#fa4238" data-fill-palette-color="accent"><path d="M77.854 49.777H26.95c-1.117 0-2.164 0.533-2.825 1.436-0.658 0.902-0.848 2.062-0.508 3.126 4.009 12.582 15.575 21.035 28.786 21.035 13.208 0 24.775-8.453 28.785-21.035 0.34-1.063 0.15-2.224-0.508-3.126C80.02 50.31 78.971 49.777 77.854 49.777zM52.402 68.374c-8.455 0-16.034-4.506-20.109-11.598h40.218C68.435 63.868 60.855 68.374 52.402 68.374z" fill="#fa4238" data-fill-palette-color="accent"></path><path d="M31.82 38.617c1.932 0 3.501-1.566 3.501-3.5 0-1.722 1.4-3.125 3.123-3.125 1.722 0 3.125 1.402 3.125 3.125 0 1.934 1.566 3.5 3.501 3.5 1.931 0 3.497-1.566 3.497-3.5 0-5.582-4.541-10.125-10.122-10.125-5.583 0-10.124 4.543-10.124 10.125C28.321 37.051 29.887 38.617 31.82 38.617z" fill="#fa4238" data-fill-palette-color="accent"></path><path d="M58.666 38.674c1.932 0 3.5-1.566 3.5-3.5 0-1.722 1.402-3.125 3.125-3.125 1.722 0 3.124 1.402 3.124 3.125 0 1.934 1.566 3.5 3.5 3.5 1.932 0 3.499-1.566 3.499-3.5 0-5.582-4.542-10.125-10.123-10.125-5.584 0-10.124 4.543-10.124 10.125C55.167 37.107 56.732 38.674 58.666 38.674z" fill="#fa4238" data-fill-palette-color="accent"></path><path d="M7.489 94.542h89.988V4.541H7.489V94.542zM16.486 13.54h71.992v72.002H16.486V13.54z" fill="#fa4238" data-fill-palette-color="accent"></path></g></svg></g></svg></g><g></g></svg></g></svg></g></svg></g></svg><rect width="320" height="360" fill="none" stroke="none" visibility="hidden"></rect></g></svg></g></svg>